<svg id="svg" version="1.1" xmlns="http://www.w3.org/2000/svg" xmlns:xlink="http://www.w3.org/1999/xlink" width="400" height="499.50248756218906" viewBox="0, 0, 400,499.50248756218906"><g id="svgg"><path id="path0" d="M210.093 45.200 C 210.093 45.970,210.175 46.285,210.276 45.900 C 210.376 45.515,210.376 44.885,210.276 44.500 C 210.175 44.115,210.093 44.430,210.093 45.200 M215.693 72.000 C 215.693 72.770,215.775 73.085,215.876 72.700 C 215.976 72.315,215.976 71.685,215.876 71.300 C 215.775 70.915,215.693 71.230,215.693 72.000 M201.952 95.287 C 202.137 96.398,202.193 96.455,202.319 95.654 C 202.401 95.133,202.303 94.543,202.101 94.341 C 201.879 94.119,201.821 94.493,201.952 95.287 M148.153 138.200 C 148.153 140.840,148.218 141.868,148.297 140.484 C 148.375 139.101,148.374 136.941,148.295 135.684 C 148.216 134.428,148.152 135.560,148.153 138.200 M154.768 250.900 C 154.649 251.760,154.710 252.250,154.912 252.048 C 155.105 251.855,155.198 251.181,155.119 250.549 C 154.987 249.491,154.959 249.519,154.768 250.900 M154.093 254.800 C 154.093 255.570,154.175 255.885,154.276 255.500 C 154.376 255.115,154.376 254.485,154.276 254.100 C 154.175 253.715,154.093 254.030,154.093 254.800 M152.128 287.600 C 152.128 289.030,152.201 289.615,152.289 288.900 C 152.378 288.185,152.378 287.015,152.289 286.300 C 152.201 285.585,152.128 286.170,152.128 287.600 M260.860 296.251 C 260.823 297.023,261.068 297.712,261.500 298.051 C 262.109 298.529,262.140 298.522,261.735 298.000 C 261.480 297.670,261.192 296.860,261.095 296.200 L 260.920 295.000 260.860 296.251 M198.140 304.400 C 198.140 306.270,198.209 307.035,198.293 306.100 C 198.377 305.165,198.377 303.635,198.293 302.700 C 198.209 301.765,198.140 302.530,198.140 304.400 M150.109 320.000 C 150.109 320.990,150.187 321.395,150.282 320.900 C 150.378 320.405,150.378 319.595,150.282 319.100 C 150.187 318.605,150.109 319.010,150.109 320.000 M217.728 321.200 C 217.728 322.630,217.801 323.215,217.889 322.500 C 217.978 321.785,217.978 320.615,217.889 319.900 C 217.801 319.185,217.728 319.770,217.728 321.200 M148.101 350.200 C 148.105 351.080,148.187 351.393,148.283 350.895 C 148.379 350.398,148.375 349.678,148.275 349.295 C 148.175 348.913,148.096 349.320,148.101 350.200 M265.693 360.000 C 265.693 360.770,265.775 361.085,265.876 360.700 C 265.976 360.315,265.976 359.685,265.876 359.300 C 265.775 358.915,265.693 359.230,265.693 360.000 M196.151 366.800 C 196.151 369.330,196.216 370.365,196.296 369.100 C 196.375 367.835,196.375 365.765,196.296 364.500 C 196.216 363.235,196.151 364.270,196.151 366.800 M219.728 370.800 C 219.728 372.230,219.801 372.815,219.889 372.100 C 219.978 371.385,219.978 370.215,219.889 369.500 C 219.801 368.785,219.728 369.370,219.728 370.800 M221.751 424.400 C 221.751 426.930,221.816 427.965,221.896 426.700 C 221.975 425.435,221.975 423.365,221.896 422.100 C 221.816 420.835,221.751 421.870,221.751 424.400 M194.151 434.400 C 194.151 436.930,194.216 437.965,194.296 436.700 C 194.375 435.435,194.375 433.365,194.296 432.100 C 194.216 430.835,194.151 431.870,194.151 434.400 M193.324 442.600 C 193.326 443.920,193.401 444.412,193.490 443.693 C 193.579 442.974,193.577 441.894,193.486 441.293 C 193.395 440.692,193.322 441.280,193.324 442.600 M140.093 467.600 C 140.093 468.370,140.175 468.685,140.276 468.300 C 140.376 467.915,140.376 467.285,140.276 466.900 C 140.175 466.515,140.093 466.830,140.093 467.600 M223.724 478.200 C 223.726 479.520,223.801 480.012,223.890 479.293 C 223.979 478.574,223.977 477.494,223.886 476.893 C 223.795 476.292,223.722 476.880,223.724 478.200 " stroke="none" fill="#070707" fill-rule="evenodd"></path><path id="path1" d="M197.400 16.800 C 197.244 17.052,198.204 17.200,200.000 17.200 C 201.796 17.200,202.756 17.052,202.600 16.800 C 202.464 16.580,201.294 16.400,200.000 16.400 C 198.706 16.400,197.536 16.580,197.400 16.800 M211.600 16.800 C 211.169 17.079,211.563 17.188,213.000 17.188 C 214.437 17.188,214.831 17.079,214.400 16.800 C 214.070 16.587,213.440 16.412,213.000 16.412 C 212.560 16.412,211.930 16.587,211.600 16.800 M195.452 17.942 C 194.776 18.690,194.928 20.000,195.692 20.000 C 195.924 20.000,195.882 19.739,195.594 19.392 C 195.181 18.895,195.220 18.641,195.807 17.992 C 196.201 17.557,196.434 17.200,196.324 17.200 C 196.214 17.200,195.822 17.534,195.452 17.942 M198.109 32.400 C 198.109 33.390,198.187 33.795,198.282 33.300 C 198.378 32.805,198.378 31.995,198.282 31.500 C 198.187 31.005,198.109 31.410,198.109 32.400 M142.531 131.400 C 142.533 132.940,142.605 133.521,142.692 132.691 C 142.779 131.861,142.777 130.601,142.689 129.891 C 142.600 129.181,142.529 129.860,142.531 131.400 M142.528 145.200 C 142.528 146.630,142.601 147.215,142.689 146.500 C 142.778 145.785,142.778 144.615,142.689 143.900 C 142.601 143.185,142.528 143.770,142.528 145.200 M277.924 196.200 C 278.126 196.640,278.392 197.270,278.514 197.600 C 278.707 198.118,278.741 198.115,278.768 197.576 C 278.786 197.234,278.520 196.604,278.178 196.176 C 277.566 195.412,277.562 195.413,277.924 196.200 M278.901 200.200 C 278.905 201.080,278.987 201.393,279.083 200.895 C 279.179 200.398,279.175 199.678,279.075 199.295 C 278.975 198.913,278.896 199.320,278.901 200.200 M96.976 206.578 C 97.404 206.920,98.034 207.186,98.376 207.168 C 98.915 207.141,98.918 207.107,98.400 206.914 C 98.070 206.792,97.440 206.526,97.000 206.324 C 96.213 205.962,96.212 205.966,96.976 206.578 M259.613 221.254 C 259.606 221.394,259.863 222.114,260.184 222.854 C 260.615 223.847,260.773 223.984,260.784 223.376 C 260.798 222.662,259.647 220.577,259.613 221.254 M167.424 223.387 C 167.851 223.710,168.380 223.975,168.600 223.975 C 168.820 223.975,168.651 223.710,168.224 223.387 C 167.796 223.064,167.267 222.800,167.047 222.800 C 166.827 222.800,166.996 223.064,167.424 223.387 M241.100 223.091 C 240.275 223.178,239.600 223.417,239.600 223.624 C 239.600 224.200,241.372 224.071,242.654 223.402 C 243.284 223.074,243.530 222.834,243.200 222.870 C 242.870 222.905,241.925 223.005,241.100 223.091 M261.600 260.983 C 261.600 261.143,261.960 261.731,262.400 262.291 C 262.840 262.850,263.200 263.177,263.200 263.017 C 263.200 262.857,262.840 262.269,262.400 261.709 C 261.960 261.150,261.600 260.823,261.600 260.983 M212.131 316.200 C 212.133 317.740,212.205 318.321,212.292 317.491 C 212.379 316.661,212.377 315.401,212.289 314.691 C 212.200 313.981,212.129 314.660,212.131 316.200 M144.509 323.200 C 144.509 324.190,144.587 324.595,144.682 324.100 C 144.778 323.605,144.778 322.795,144.682 322.300 C 144.587 321.805,144.509 322.210,144.509 323.200 M213.055 329.400 C 213.188 330.280,213.336 331.496,213.384 332.102 C 213.432 332.709,213.611 333.339,213.781 333.502 C 214.167 333.873,213.817 331.078,213.242 329.200 L 212.814 327.800 213.055 329.400 M142.509 353.200 C 142.509 354.190,142.587 354.595,142.682 354.100 C 142.778 353.605,142.778 352.795,142.682 352.300 C 142.587 351.805,142.509 352.210,142.509 353.200 M201.709 357.200 C 201.709 358.190,201.787 358.595,201.882 358.100 C 201.978 357.605,201.978 356.795,201.882 356.300 C 201.787 355.805,201.709 356.210,201.709 357.200 M270.255 358.600 C 271.180 360.179,271.200 360.203,271.200 359.711 C 271.200 359.479,270.829 358.864,270.376 358.344 L 269.553 357.400 270.255 358.600 M214.128 366.000 C 214.128 367.430,214.201 368.015,214.289 367.300 C 214.378 366.585,214.378 365.415,214.289 364.700 C 214.201 363.985,214.128 364.570,214.128 366.000 M214.832 376.424 C 214.814 376.766,215.080 377.396,215.422 377.824 C 216.034 378.588,216.038 378.587,215.676 377.800 C 215.474 377.360,215.208 376.730,215.086 376.400 C 214.893 375.882,214.859 375.885,214.832 376.424 M140.544 386.800 C 140.544 388.890,140.612 389.745,140.694 388.700 C 140.776 387.655,140.776 385.945,140.694 384.900 C 140.612 383.855,140.544 384.710,140.544 386.800 M273.309 388.800 C 273.309 389.790,273.387 390.195,273.482 389.700 C 273.578 389.205,273.578 388.395,273.482 387.900 C 273.387 387.405,273.309 387.810,273.309 388.800 M139.969 400.500 C 139.869 400.825,139.611 403.357,139.450 405.600 L 139.263 408.200 139.592 406.000 C 139.773 404.790,140.052 403.035,140.213 402.100 C 140.429 400.844,140.242 399.615,139.969 400.500 M199.709 414.800 C 199.709 415.790,199.787 416.195,199.882 415.700 C 199.978 415.205,199.978 414.395,199.882 413.900 C 199.787 413.405,199.709 413.810,199.709 414.800 M216.124 415.400 C 216.126 416.720,216.201 417.212,216.290 416.493 C 216.379 415.774,216.377 414.694,216.286 414.093 C 216.195 413.492,216.122 414.080,216.124 415.400 M198.860 423.820 C 198.827 424.491,198.576 425.301,198.303 425.620 C 198.029 425.940,198.133 425.910,198.535 425.554 C 199.025 425.119,199.207 424.531,199.092 423.754 L 198.920 422.600 198.860 423.820 M277.301 446.600 C 277.305 447.480,277.387 447.793,277.483 447.295 C 277.579 446.798,277.575 446.078,277.475 445.695 C 277.375 445.313,277.296 445.720,277.301 446.600 M277.660 459.200 C 277.643 459.970,277.899 461.050,278.231 461.600 L 278.833 462.600 278.547 461.600 C 278.390 461.050,278.133 459.970,277.977 459.200 L 277.692 457.800 277.660 459.200 M218.109 460.400 C 218.109 461.390,218.187 461.795,218.282 461.300 C 218.378 460.805,218.378 459.995,218.282 459.500 C 218.187 459.005,218.109 459.410,218.109 460.400 M218.972 467.000 C 219.129 467.660,219.429 468.376,219.639 468.591 C 219.850 468.806,219.810 468.356,219.551 467.591 C 218.946 465.800,218.605 465.452,218.972 467.000 M197.709 472.400 C 197.709 473.390,197.787 473.795,197.882 473.300 C 197.978 472.805,197.978 471.995,197.882 471.500 C 197.787 471.005,197.709 471.410,197.709 472.400 M162.200 482.672 C 167.959 482.955,179.109 482.974,178.939 482.700 C 178.837 482.535,174.488 482.435,169.276 482.477 C 164.064 482.519,160.880 482.607,162.200 482.672 M194.569 482.791 C 194.353 483.007,190.890 483.234,186.789 483.300 L 179.400 483.419 186.851 483.510 C 193.064 483.585,194.385 483.500,194.800 483.000 C 195.353 482.334,195.182 482.178,194.569 482.791 M221.919 482.841 C 222.323 483.277,224.002 483.407,229.519 483.432 L 236.600 483.464 229.800 483.227 C 226.060 483.096,222.640 482.830,222.200 482.636 C 221.527 482.338,221.482 482.371,221.919 482.841 M237.337 482.706 C 236.874 483.000,251.444 482.915,252.200 482.619 C 252.420 482.533,249.270 482.452,245.200 482.438 C 241.130 482.424,237.592 482.544,237.337 482.706 M256.300 482.689 C 257.015 482.778,258.185 482.778,258.900 482.689 C 259.615 482.601,259.030 482.528,257.600 482.528 C 256.170 482.528,255.585 482.601,256.300 482.689 " stroke="none" fill="#f3f3f3" fill-rule="evenodd"></path><path id="path2" d="" stroke="none" fill="#7c7c7c" fill-rule="evenodd"></path><path id="path3" d="" stroke="none" fill="#747474" fill-rule="evenodd"></path><path id="path4" d="M198.493 370.000 C 198.493 370.770,198.575 371.085,198.676 370.700 C 198.776 370.315,198.776 369.685,198.676 369.300 C 198.575 368.915,198.493 369.230,198.493 370.000 " stroke="none" fill="#9c9c9c" fill-rule="evenodd"></path></g></svg>