<svg id="svg" version="1.1" xmlns="http://www.w3.org/2000/svg" xmlns:xlink="http://www.w3.org/1999/xlink" width="400" height="400" viewBox="0, 0, 400,400"><g id="svgg"><path id="path0" d="" stroke="none" fill="#0c0c0c" fill-rule="evenodd"></path><path id="path1" d="M150.800 12.925 C 150.800 12.994,151.385 13.579,152.100 14.225 L 153.400 15.400 152.225 14.100 C 151.130 12.888,150.800 12.616,150.800 12.925 M240.400 14.925 C 240.400 14.994,240.985 15.579,241.700 16.225 L 243.000 17.400 241.825 16.100 C 240.730 14.888,240.400 14.616,240.400 14.925 M241.553 21.265 C 242.403 22.197,242.779 22.926,242.586 23.265 C 242.340 23.699,242.386 23.704,242.828 23.293 C 243.282 22.872,243.108 22.536,241.794 21.293 L 240.215 19.800 241.553 21.265 M234.796 36.700 L 226.600 45.000 234.900 36.804 C 242.612 29.188,243.381 28.400,243.096 28.400 C 243.039 28.400,239.304 32.135,234.796 36.700 M234.575 32.100 L 233.400 33.400 234.700 32.225 C 235.415 31.579,236.000 30.994,236.000 30.925 C 236.000 30.616,235.670 30.888,234.575 32.100 M236.400 55.000 C 241.346 59.950,245.483 64.000,245.593 64.000 C 245.703 64.000,241.746 59.950,236.800 55.000 C 231.854 50.050,227.717 46.000,227.607 46.000 C 227.497 46.000,231.454 50.050,236.400 55.000 M178.370 49.500 L 177.400 50.600 178.600 49.600 C 179.260 49.050,179.875 48.555,179.967 48.500 C 180.058 48.445,179.955 48.400,179.736 48.400 C 179.518 48.400,178.903 48.895,178.370 49.500 M213.797 57.700 L 205.000 66.600 213.900 57.803 C 222.170 49.630,222.980 48.800,222.697 48.800 C 222.640 48.800,218.635 52.805,213.797 57.700 M173.978 53.900 L 172.600 55.400 174.100 54.022 C 174.925 53.263,175.600 52.588,175.600 52.522 C 175.600 52.216,175.262 52.504,173.978 53.900 M166.175 61.700 L 165.000 63.000 166.300 61.825 C 167.512 60.730,167.784 60.400,167.475 60.400 C 167.406 60.400,166.821 60.985,166.175 61.700 M161.827 65.970 C 161.444 66.394,161.215 67.069,161.319 67.470 C 161.493 68.145,161.511 68.142,161.554 67.431 C 161.579 67.009,161.898 66.334,162.262 65.931 C 162.626 65.529,162.834 65.200,162.724 65.200 C 162.614 65.200,162.210 65.547,161.827 65.970 M242.454 67.181 C 242.425 67.720,241.818 68.800,241.108 69.581 L 239.815 71.000 241.343 69.558 C 242.495 68.471,242.826 67.880,242.690 67.158 L 242.509 66.200 242.454 67.181 M191.997 79.500 L 183.000 88.600 192.185 79.600 C 197.237 74.650,201.452 70.555,201.552 70.500 C 201.652 70.445,201.567 70.400,201.363 70.400 C 201.160 70.400,196.945 74.495,191.997 79.500 M243.200 72.600 C 242.228 73.590,241.523 74.400,241.633 74.400 C 241.743 74.400,242.628 73.590,243.600 72.600 C 244.572 71.610,245.277 70.800,245.167 70.800 C 245.057 70.800,244.172 71.610,243.200 72.600 M236.378 74.300 L 235.000 75.800 236.500 74.422 C 237.896 73.138,238.184 72.800,237.878 72.800 C 237.812 72.800,237.137 73.475,236.378 74.300 M238.985 76.900 L 237.000 79.000 239.100 77.015 C 241.051 75.171,241.383 74.800,241.085 74.800 C 241.022 74.800,240.077 75.745,238.985 76.900 M231.775 78.900 L 230.600 80.200 231.900 79.025 C 232.615 78.379,233.200 77.794,233.200 77.725 C 233.200 77.416,232.870 77.688,231.775 78.900 M232.792 83.100 L 229.000 87.000 232.900 83.208 C 235.045 81.122,236.800 79.367,236.800 79.308 C 236.800 79.018,236.314 79.478,232.792 83.100 M228.575 82.100 L 227.400 83.400 228.700 82.225 C 229.415 81.579,230.000 80.994,230.000 80.925 C 230.000 80.616,229.670 80.888,228.575 82.100 M228.080 87.680 C 227.816 87.944,227.625 88.619,227.654 89.180 L 227.709 90.200 227.893 89.200 C 227.994 88.650,228.261 87.975,228.487 87.700 C 229.011 87.062,228.713 87.047,228.080 87.680 M176.352 89.513 C 176.221 90.307,176.279 90.681,176.501 90.459 C 176.703 90.257,176.801 89.667,176.719 89.146 C 176.593 88.345,176.537 88.402,176.352 89.513 M219.178 91.500 L 217.800 93.000 219.300 91.622 C 220.696 90.338,220.984 90.000,220.678 90.000 C 220.612 90.000,219.937 90.675,219.178 91.500 M177.578 93.900 L 176.200 95.400 177.796 94.000 C 178.673 93.230,179.468 92.555,179.562 92.500 C 179.656 92.445,179.559 92.400,179.345 92.400 C 179.132 92.400,178.337 93.075,177.578 93.900 M221.600 94.200 C 220.628 95.190,219.923 96.000,220.033 96.000 C 220.143 96.000,221.028 95.190,222.000 94.200 C 222.972 93.210,223.677 92.400,223.567 92.400 C 223.457 92.400,222.572 93.210,221.600 94.200 M215.978 94.700 L 214.600 96.200 216.100 94.822 C 217.496 93.538,217.784 93.200,217.478 93.200 C 217.412 93.200,216.737 93.875,215.978 94.700 M153.449 109.200 C 153.916 109.750,154.397 110.470,154.518 110.800 C 154.705 111.314,154.741 111.309,154.768 110.770 C 154.786 110.423,154.305 109.703,153.700 109.170 L 152.600 108.200 153.449 109.200 M239.785 115.300 L 237.800 117.400 239.900 115.415 C 241.851 113.571,242.183 113.200,241.885 113.200 C 241.822 113.200,240.877 114.145,239.785 115.300 M151.994 119.500 L 147.000 124.600 152.100 119.606 C 154.905 116.859,157.200 114.564,157.200 114.506 C 157.200 114.219,156.633 114.763,151.994 119.500 M194.378 116.300 L 193.000 117.800 194.500 116.422 C 195.896 115.138,196.184 114.800,195.878 114.800 C 195.812 114.800,195.137 115.475,194.378 116.300 M195.192 120.700 L 191.400 124.600 195.300 120.808 C 198.922 117.286,199.382 116.800,199.092 116.800 C 199.033 116.800,197.278 118.555,195.192 120.700 M235.385 119.700 L 233.400 121.800 235.500 119.815 C 237.451 117.971,237.783 117.600,237.485 117.600 C 237.422 117.600,236.477 118.545,235.385 119.700 M163.600 119.400 C 164.346 120.170,165.047 120.800,165.157 120.800 C 165.267 120.800,164.746 120.170,164.000 119.400 C 163.254 118.630,162.553 118.000,162.443 118.000 C 162.333 118.000,162.854 118.630,163.600 119.400 M191.178 119.500 L 189.800 121.000 191.300 119.622 C 192.696 118.338,192.984 118.000,192.678 118.000 C 192.612 118.000,191.937 118.675,191.178 119.500 M231.578 123.500 L 230.200 125.000 231.700 123.622 C 233.096 122.338,233.384 122.000,233.078 122.000 C 233.012 122.000,232.337 122.675,231.578 123.500 M168.000 123.800 C 168.746 124.570,169.447 125.200,169.557 125.200 C 169.667 125.200,169.146 124.570,168.400 123.800 C 167.654 123.030,166.953 122.400,166.843 122.400 C 166.733 122.400,167.254 123.030,168.000 123.800 M186.378 124.300 L 185.000 125.800 186.500 124.422 C 187.325 123.663,188.000 122.988,188.000 122.922 C 188.000 122.616,187.662 122.904,186.378 124.300 M189.578 126.300 L 188.200 127.800 189.700 126.422 C 190.525 125.663,191.200 124.988,191.200 124.922 C 191.200 124.616,190.862 124.904,189.578 126.300 M165.978 144.700 L 164.600 146.200 166.100 144.822 C 166.925 144.063,167.600 143.388,167.600 143.322 C 167.600 143.016,167.262 143.304,165.978 144.700 M208.391 146.700 L 205.000 150.200 208.500 146.809 C 210.425 144.944,212.000 143.369,212.000 143.309 C 212.000 143.018,211.541 143.449,208.391 146.700 M190.800 146.600 C 191.546 147.370,192.247 148.000,192.357 148.000 C 192.467 148.000,191.946 147.370,191.200 146.600 C 190.454 145.830,189.753 145.200,189.643 145.200 C 189.533 145.200,190.054 145.830,190.800 146.600 M167.978 147.900 L 166.600 149.400 168.100 148.022 C 168.925 147.263,169.600 146.588,169.600 146.522 C 169.600 146.216,169.262 146.504,167.978 147.900 M161.375 149.300 L 160.200 150.600 161.500 149.425 C 162.712 148.330,162.984 148.000,162.675 148.000 C 162.606 148.000,162.021 148.585,161.375 149.300 M163.588 152.300 L 161.000 155.000 163.700 152.412 C 165.185 150.988,166.400 149.773,166.400 149.712 C 166.400 149.417,165.993 149.792,163.588 152.300 M196.820 152.621 C 197.799 153.733,198.681 154.581,198.781 154.507 C 198.880 154.433,198.079 153.523,197.001 152.486 L 195.040 150.600 196.820 152.621 M244.800 151.372 C 244.800 151.898,246.283 152.316,246.822 151.942 C 247.319 151.596,247.316 151.564,246.800 151.715 C 246.470 151.813,245.885 151.730,245.500 151.532 C 245.115 151.334,244.800 151.262,244.800 151.372 M242.495 154.625 C 243.030 155.262,243.081 155.559,242.715 155.925 C 242.454 156.186,242.344 156.400,242.471 156.400 C 243.377 156.400,243.518 155.255,242.699 154.561 C 241.802 153.802,241.802 153.802,242.495 154.625 M153.375 157.300 L 152.200 158.600 153.500 157.425 C 154.712 156.330,154.984 156.000,154.675 156.000 C 154.606 156.000,154.021 156.585,153.375 157.300 M195.389 159.700 L 192.600 162.600 195.500 159.811 C 197.095 158.277,198.400 156.972,198.400 156.911 C 198.400 156.617,197.980 157.006,195.389 159.700 M240.778 158.300 L 239.400 159.800 240.900 158.422 C 242.296 157.138,242.584 156.800,242.278 156.800 C 242.212 156.800,241.537 157.475,240.778 158.300 M160.200 160.000 C 161.283 161.100,162.260 162.000,162.370 162.000 C 162.480 162.000,161.683 161.100,160.600 160.000 C 159.517 158.900,158.540 158.000,158.430 158.000 C 158.320 158.000,159.117 158.900,160.200 160.000 M201.549 158.700 C 201.049 159.338,201.064 159.350,201.714 158.839 C 202.348 158.342,202.575 158.410,203.714 159.439 L 205.000 160.600 203.825 159.300 C 202.469 157.799,202.292 157.753,201.549 158.700 M153.438 162.479 L 149.400 166.559 153.600 162.585 C 155.910 160.400,157.875 158.565,157.967 158.506 C 158.058 158.448,157.986 158.400,157.805 158.400 C 157.624 158.400,155.659 160.236,153.438 162.479 M148.975 161.700 L 147.800 163.000 149.100 161.825 C 150.312 160.730,150.584 160.400,150.275 160.400 C 150.206 160.400,149.621 160.985,148.975 161.700 M189.785 165.300 L 187.800 167.400 189.900 165.415 C 191.055 164.323,192.000 163.378,192.000 163.315 C 192.000 163.017,191.629 163.349,189.785 165.300 M145.791 170.100 L 142.600 173.400 145.900 170.209 C 147.715 168.455,149.200 166.970,149.200 166.909 C 149.200 166.618,148.754 167.035,145.791 170.100 M185.385 169.700 L 183.400 171.800 185.500 169.815 C 186.655 168.723,187.600 167.778,187.600 167.715 C 187.600 167.417,187.229 167.749,185.385 169.700 M213.600 169.400 C 214.346 170.170,215.047 170.800,215.157 170.800 C 215.267 170.800,214.746 170.170,214.000 169.400 C 213.254 168.630,212.553 168.000,212.443 168.000 C 212.333 168.000,212.854 168.630,213.600 169.400 M218.000 173.800 C 218.746 174.570,219.447 175.200,219.557 175.200 C 219.667 175.200,219.146 174.570,218.400 173.800 C 217.654 173.030,216.953 172.400,216.843 172.400 C 216.733 172.400,217.254 173.030,218.000 173.800 M218.585 180.500 L 216.600 182.600 218.700 180.615 C 220.651 178.771,220.983 178.400,220.685 178.400 C 220.622 178.400,219.677 179.345,218.585 180.500 M142.800 181.800 C 143.546 182.570,144.247 183.200,144.357 183.200 C 144.467 183.200,143.946 182.570,143.200 181.800 C 142.454 181.030,141.753 180.400,141.643 180.400 C 141.533 180.400,142.054 181.030,142.800 181.800 M140.400 184.600 C 141.595 185.810,142.663 186.800,142.773 186.800 C 142.883 186.800,141.995 185.810,140.800 184.600 C 139.605 183.390,138.537 182.400,138.427 182.400 C 138.317 182.400,139.205 183.390,140.400 184.600 M214.185 184.900 L 212.200 187.000 214.300 185.015 C 216.251 183.171,216.583 182.800,216.285 182.800 C 216.222 182.800,215.277 183.745,214.185 184.900 M185.400 185.200 C 186.483 186.300,187.460 187.200,187.570 187.200 C 187.680 187.200,186.883 186.300,185.800 185.200 C 184.717 184.100,183.740 183.200,183.630 183.200 C 183.520 183.200,184.317 184.100,185.400 185.200 M146.800 185.800 C 147.995 187.010,149.063 188.000,149.173 188.000 C 149.283 188.000,148.395 187.010,147.200 185.800 C 146.005 184.590,144.937 183.600,144.827 183.600 C 144.717 183.600,145.605 184.590,146.800 185.800 M144.400 188.600 C 145.146 189.370,145.847 190.000,145.957 190.000 C 146.067 190.000,145.546 189.370,144.800 188.600 C 144.054 187.830,143.353 187.200,143.243 187.200 C 143.133 187.200,143.654 187.830,144.400 188.600 M193.000 192.800 C 195.854 195.660,198.278 198.000,198.388 198.000 C 198.498 198.000,196.254 195.660,193.400 192.800 C 190.546 189.940,188.122 187.600,188.012 187.600 C 187.902 187.600,190.146 189.940,193.000 192.800 M153.000 191.929 C 157.632 196.726,158.364 197.139,159.647 195.683 L 160.600 194.600 159.600 195.473 C 158.294 196.614,157.961 196.426,153.200 191.851 L 149.400 188.200 153.000 191.929 M207.978 191.100 L 206.600 192.600 208.100 191.222 C 209.496 189.938,209.784 189.600,209.478 189.600 C 209.412 189.600,208.737 190.275,207.978 191.100 M148.800 193.000 C 149.546 193.770,150.247 194.400,150.357 194.400 C 150.467 194.400,149.946 193.770,149.200 193.000 C 148.454 192.230,147.753 191.600,147.643 191.600 C 147.533 191.600,148.054 192.230,148.800 193.000 M203.514 195.468 C 202.576 196.406,202.358 196.470,201.723 195.990 C 201.031 195.467,201.030 195.477,201.703 196.211 C 202.392 196.962,202.433 196.952,203.696 195.689 C 204.405 194.980,204.894 194.400,204.783 194.400 C 204.672 194.400,204.101 194.881,203.514 195.468 M152.600 196.800 C 153.683 197.900,154.660 198.800,154.770 198.800 C 154.880 198.800,154.083 197.900,153.000 196.800 C 151.917 195.700,150.940 194.800,150.830 194.800 C 150.720 194.800,151.517 195.700,152.600 196.800 M240.800 196.600 C 241.546 197.370,242.247 198.000,242.357 198.000 C 242.467 198.000,241.946 197.370,241.200 196.600 C 240.454 195.830,239.753 195.200,239.643 195.200 C 239.533 195.200,240.054 195.830,240.800 196.600 M152.400 202.600 C 151.428 203.590,150.723 204.400,150.833 204.400 C 150.943 204.400,151.828 203.590,152.800 202.600 C 153.772 201.610,154.477 200.800,154.367 200.800 C 154.257 200.800,153.372 201.610,152.400 202.600 M164.000 203.000 C 165.195 204.210,166.263 205.200,166.373 205.200 C 166.483 205.200,165.595 204.210,164.400 203.000 C 163.205 201.790,162.137 200.800,162.027 200.800 C 161.917 200.800,162.805 201.790,164.000 203.000 M196.185 202.900 L 194.200 205.000 196.300 203.015 C 197.455 201.923,198.400 200.978,198.400 200.915 C 198.400 200.617,198.029 200.949,196.185 202.900 M245.339 203.050 C 244.632 203.618,244.635 203.628,245.400 203.276 C 245.840 203.074,246.425 202.989,246.700 203.087 C 247.392 203.335,247.333 202.937,246.639 202.670 C 246.330 202.552,245.745 202.723,245.339 203.050 M160.600 204.800 C 161.683 205.900,162.660 206.800,162.770 206.800 C 162.880 206.800,162.083 205.900,161.000 204.800 C 159.917 203.700,158.940 202.800,158.830 202.800 C 158.720 202.800,159.517 203.700,160.600 204.800 M207.800 207.600 C 210.212 210.020,212.276 212.000,212.386 212.000 C 212.496 212.000,210.612 210.020,208.200 207.600 C 205.788 205.180,203.724 203.200,203.614 203.200 C 203.504 203.200,205.388 205.180,207.800 207.600 M146.192 208.900 L 142.600 212.600 146.300 209.008 C 149.736 205.672,150.182 205.200,149.892 205.200 C 149.832 205.200,148.167 206.865,146.192 208.900 M168.000 207.000 C 168.746 207.770,169.447 208.400,169.557 208.400 C 169.667 208.400,169.146 207.770,168.400 207.000 C 167.654 206.230,166.953 205.600,166.843 205.600 C 166.733 205.600,167.254 206.230,168.000 207.000 M252.200 208.000 C 253.506 209.320,254.665 210.400,254.775 210.400 C 254.885 210.400,253.906 209.320,252.600 208.000 C 251.294 206.680,250.135 205.600,250.025 205.600 C 249.915 205.600,250.894 206.680,252.200 208.000 M190.778 208.300 L 189.400 209.800 190.900 208.422 C 192.296 207.138,192.584 206.800,192.278 206.800 C 192.212 206.800,191.537 207.475,190.778 208.300 M165.400 209.600 C 166.483 210.700,167.460 211.600,167.570 211.600 C 167.680 211.600,166.883 210.700,165.800 209.600 C 164.717 208.500,163.740 207.600,163.630 207.600 C 163.520 207.600,164.317 208.500,165.400 209.600 M171.800 210.800 C 172.883 211.900,173.860 212.800,173.970 212.800 C 174.080 212.800,173.283 211.900,172.200 210.800 C 171.117 209.700,170.140 208.800,170.030 208.800 C 169.920 208.800,170.717 209.700,171.800 210.800 M130.793 214.100 C 133.099 216.465,135.034 218.400,135.093 218.400 C 135.382 218.400,134.894 217.887,130.900 213.993 L 126.600 209.800 130.793 214.100 M169.200 213.400 C 169.946 214.170,170.647 214.800,170.757 214.800 C 170.867 214.800,170.346 214.170,169.600 213.400 C 168.854 212.630,168.153 212.000,168.043 212.000 C 167.933 212.000,168.454 212.630,169.200 213.400 M184.585 214.500 L 182.600 216.600 184.700 214.615 C 185.855 213.523,186.800 212.578,186.800 212.515 C 186.800 212.217,186.429 212.549,184.585 214.500 M216.400 216.200 C 218.481 218.290,220.274 220.000,220.384 220.000 C 220.494 220.000,218.881 218.290,216.800 216.200 C 214.719 214.110,212.926 212.400,212.816 212.400 C 212.706 212.400,214.319 214.110,216.400 216.200 M139.785 215.300 L 137.800 217.400 139.900 215.415 C 141.055 214.323,142.000 213.378,142.000 213.315 C 142.000 213.017,141.629 213.349,139.785 215.300 M176.600 215.600 C 177.683 216.700,178.660 217.600,178.770 217.600 C 178.880 217.600,178.083 216.700,177.000 215.600 C 175.917 214.500,174.940 213.600,174.830 213.600 C 174.720 213.600,175.517 214.500,176.600 215.600 M174.000 218.200 C 174.746 218.970,175.447 219.600,175.557 219.600 C 175.667 219.600,175.146 218.970,174.400 218.200 C 173.654 217.430,172.953 216.800,172.843 216.800 C 172.733 216.800,173.254 217.430,174.000 218.200 M181.078 217.813 C 180.460 218.356,180.114 218.800,180.308 218.800 C 180.502 218.800,181.083 218.350,181.600 217.800 C 182.795 216.528,182.531 216.534,181.078 217.813 M224.997 217.603 C 224.300 218.373,224.235 218.377,223.435 217.703 L 222.600 217.000 223.368 217.906 L 224.135 218.812 225.068 217.936 C 225.580 217.455,226.000 217.002,226.000 216.930 C 226.000 216.633,225.683 216.846,224.997 217.603 M227.791 220.409 C 227.188 221.077,227.152 221.305,227.588 221.709 C 228.009 222.100,228.056 222.092,227.819 221.675 C 227.648 221.373,227.820 220.820,228.223 220.375 C 228.608 219.949,228.834 219.600,228.724 219.600 C 228.614 219.600,228.194 219.964,227.791 220.409 M264.981 220.725 C 265.151 221.026,264.969 221.624,264.554 222.125 C 263.846 222.981,263.851 222.980,264.799 222.104 C 265.608 221.358,265.679 221.125,265.226 220.704 C 264.787 220.297,264.740 220.301,264.981 220.725 M131.429 223.562 L 130.258 225.000 131.609 223.713 C 132.351 223.005,132.878 222.358,132.779 222.275 C 132.681 222.192,132.073 222.771,131.429 223.562 M139.200 222.237 C 139.200 222.440,143.295 226.655,148.300 231.603 L 157.400 240.600 148.400 231.415 C 143.450 226.363,139.355 222.148,139.300 222.048 C 139.245 221.948,139.200 222.033,139.200 222.237 M185.000 224.000 C 185.859 224.880,186.652 225.600,186.762 225.600 C 186.872 225.600,186.259 224.880,185.400 224.000 C 184.541 223.120,183.748 222.400,183.638 222.400 C 183.528 222.400,184.141 223.120,185.000 224.000 M134.662 225.100 C 134.560 225.265,135.162 225.400,136.000 225.400 C 136.838 225.400,137.440 225.265,137.338 225.100 C 137.236 224.935,136.634 224.800,136.000 224.800 C 135.366 224.800,134.764 224.935,134.662 225.100 M180.800 224.925 C 180.800 224.994,181.385 225.579,182.100 226.225 L 183.400 227.400 182.225 226.100 C 181.130 224.888,180.800 224.616,180.800 224.925 M229.200 229.000 C 231.281 231.090,233.074 232.800,233.184 232.800 C 233.294 232.800,231.681 231.090,229.600 229.000 C 227.519 226.910,225.726 225.200,225.616 225.200 C 225.506 225.200,227.119 226.910,229.200 229.000 M127.385 227.700 L 125.400 229.800 127.500 227.815 C 128.655 226.723,129.600 225.778,129.600 225.715 C 129.600 225.417,129.229 225.749,127.385 227.700 M189.000 228.000 C 190.083 229.100,191.060 230.000,191.170 230.000 C 191.280 230.000,190.483 229.100,189.400 228.000 C 188.317 226.900,187.340 226.000,187.230 226.000 C 187.120 226.000,187.917 226.900,189.000 228.000 M169.188 229.900 L 166.600 232.600 169.300 230.012 C 170.785 228.588,172.000 227.373,172.000 227.312 C 172.000 227.017,171.593 227.392,169.188 229.900 M186.400 230.600 C 187.146 231.370,187.847 232.000,187.957 232.000 C 188.067 232.000,187.546 231.370,186.800 230.600 C 186.054 229.830,185.353 229.200,185.243 229.200 C 185.133 229.200,185.654 229.830,186.400 230.600 M123.178 231.900 L 121.800 233.400 123.300 232.022 C 124.696 230.738,124.984 230.400,124.678 230.400 C 124.612 230.400,123.937 231.075,123.178 231.900 M192.800 231.800 C 193.546 232.570,194.247 233.200,194.357 233.200 C 194.467 233.200,193.946 232.570,193.200 231.800 C 192.454 231.030,191.753 230.400,191.643 230.400 C 191.533 230.400,192.054 231.030,192.800 231.800 M190.400 234.600 C 191.595 235.810,192.663 236.800,192.773 236.800 C 192.883 236.800,191.995 235.810,190.800 234.600 C 189.605 233.390,188.537 232.400,188.427 232.400 C 188.317 232.400,189.205 233.390,190.400 234.600 M164.185 234.900 L 162.200 237.000 164.300 235.015 C 165.455 233.923,166.400 232.978,166.400 232.915 C 166.400 232.617,166.029 232.949,164.185 234.900 M235.400 235.200 C 236.483 236.300,237.460 237.200,237.570 237.200 C 237.680 237.200,236.883 236.300,235.800 235.200 C 234.717 234.100,233.740 233.200,233.630 233.200 C 233.520 233.200,234.317 234.100,235.400 235.200 M119.385 235.700 L 117.400 237.800 119.500 235.815 C 120.655 234.723,121.600 233.778,121.600 233.715 C 121.600 233.417,121.229 233.749,119.385 235.700 M196.800 235.800 C 197.995 237.010,199.063 238.000,199.173 238.000 C 199.283 238.000,198.395 237.010,197.200 235.800 C 196.005 234.590,194.937 233.600,194.827 233.600 C 194.717 233.600,195.605 234.590,196.800 235.800 M279.800 235.600 C 280.883 236.700,281.860 237.600,281.970 237.600 C 282.080 237.600,281.283 236.700,280.200 235.600 C 279.117 234.500,278.140 233.600,278.030 233.600 C 277.920 233.600,278.717 234.500,279.800 235.600 M194.400 238.600 C 195.146 239.370,195.847 240.000,195.957 240.000 C 196.067 240.000,195.546 239.370,194.800 238.600 C 194.054 237.830,193.353 237.200,193.243 237.200 C 193.133 237.200,193.654 237.830,194.400 238.600 M239.800 239.600 C 240.883 240.700,241.860 241.600,241.970 241.600 C 242.080 241.600,241.283 240.700,240.200 239.600 C 239.117 238.500,238.140 237.600,238.030 237.600 C 237.920 237.600,238.717 238.500,239.800 239.600 M116.020 238.978 C 115.515 239.516,114.629 240.029,114.051 240.118 L 113.000 240.280 114.025 240.340 C 114.694 240.379,115.449 239.983,116.200 239.200 C 116.832 238.540,117.257 238.000,117.145 238.000 C 117.032 238.000,116.526 238.440,116.020 238.978 M284.600 240.400 C 285.683 241.500,286.660 242.400,286.770 242.400 C 286.880 242.400,286.083 241.500,285.000 240.400 C 283.917 239.300,282.940 238.400,282.830 238.400 C 282.720 238.400,283.517 239.300,284.600 240.400 M205.083 242.651 C 204.757 242.976,205.754 244.898,206.622 245.618 C 206.993 245.926,206.828 245.487,206.254 244.642 C 205.681 243.797,205.309 242.947,205.429 242.753 C 205.680 242.347,205.453 242.280,205.083 242.651 M154.432 243.988 C 154.414 244.312,153.367 245.662,152.104 246.988 L 149.809 249.400 152.353 246.947 C 153.869 245.486,154.810 244.273,154.681 243.947 C 154.507 243.509,154.457 243.518,154.432 243.988 M161.200 244.392 C 161.200 244.726,179.155 262.587,179.285 262.382 C 179.348 262.282,175.305 258.145,170.300 253.188 C 165.295 248.232,161.200 244.273,161.200 244.392 M119.200 246.200 C 119.946 246.970,120.647 247.600,120.757 247.600 C 120.867 247.600,120.346 246.970,119.600 246.200 C 118.854 245.430,118.153 244.800,118.043 244.800 C 117.933 244.800,118.454 245.430,119.200 246.200 M209.400 248.400 C 210.483 249.500,211.460 250.400,211.570 250.400 C 211.680 250.400,210.883 249.500,209.800 248.400 C 208.717 247.300,207.740 246.400,207.630 246.400 C 207.520 246.400,208.317 247.300,209.400 248.400 M202.800 246.925 C 202.800 246.994,203.385 247.579,204.100 248.225 L 205.400 249.400 204.225 248.100 C 203.130 246.888,202.800 246.616,202.800 246.925 M247.600 247.325 C 247.600 247.394,248.185 247.979,248.900 248.625 L 250.200 249.800 249.025 248.500 C 247.930 247.288,247.600 247.016,247.600 247.325 M279.797 256.500 L 271.000 265.400 279.900 256.603 C 284.795 251.765,288.800 247.760,288.800 247.703 C 288.800 247.420,287.970 248.230,279.797 256.500 M124.000 251.000 C 124.746 251.770,125.447 252.400,125.557 252.400 C 125.667 252.400,125.146 251.770,124.400 251.000 C 123.654 250.230,122.953 249.600,122.843 249.600 C 122.733 249.600,123.254 250.230,124.000 251.000 M206.800 251.000 C 207.546 251.770,208.247 252.400,208.357 252.400 C 208.467 252.400,207.946 251.770,207.200 251.000 C 206.454 250.230,205.753 249.600,205.643 249.600 C 205.533 249.600,206.054 250.230,206.800 251.000 M146.587 252.500 L 144.200 255.000 146.700 252.613 C 148.075 251.299,149.200 250.174,149.200 250.113 C 149.200 249.817,148.805 250.178,146.587 252.500 M256.200 256.000 C 259.494 259.300,262.280 262.000,262.390 262.000 C 262.500 262.000,259.894 259.300,256.600 256.000 C 253.306 252.700,250.520 250.000,250.410 250.000 C 250.300 250.000,252.906 252.700,256.200 256.000 M214.000 253.000 C 215.195 254.210,216.263 255.200,216.373 255.200 C 216.483 255.200,215.595 254.210,214.400 253.000 C 213.205 251.790,212.137 250.800,212.027 250.800 C 211.917 250.800,212.805 251.790,214.000 253.000 M127.800 254.800 C 128.883 255.900,129.860 256.800,129.970 256.800 C 130.080 256.800,129.283 255.900,128.200 254.800 C 127.117 253.700,126.140 252.800,126.030 252.800 C 125.920 252.800,126.717 253.700,127.800 254.800 M210.600 254.800 C 211.683 255.900,212.660 256.800,212.770 256.800 C 212.880 256.800,212.083 255.900,211.000 254.800 C 209.917 253.700,208.940 252.800,208.830 252.800 C 208.720 252.800,209.517 253.700,210.600 254.800 M218.000 257.000 C 218.746 257.770,219.447 258.400,219.557 258.400 C 219.667 258.400,219.146 257.770,218.400 257.000 C 217.654 256.230,216.953 255.600,216.843 255.600 C 216.733 255.600,217.254 256.230,218.000 257.000 M140.778 258.300 L 139.400 259.800 140.900 258.422 C 142.296 257.138,142.584 256.800,142.278 256.800 C 142.212 256.800,141.537 257.475,140.778 258.300 M130.800 257.725 C 130.800 257.794,131.385 258.379,132.100 259.025 L 133.400 260.200 132.225 258.900 C 131.130 257.688,130.800 257.416,130.800 257.725 M215.400 259.600 C 216.483 260.700,217.460 261.600,217.570 261.600 C 217.680 261.600,216.883 260.700,215.800 259.600 C 214.717 258.500,213.740 257.600,213.630 257.600 C 213.520 257.600,214.317 258.500,215.400 259.600 M221.583 260.500 C 223.241 262.266,223.600 262.584,223.600 262.283 C 223.600 262.219,222.745 261.364,221.700 260.383 L 219.800 258.600 221.583 260.500 M219.200 263.400 C 219.946 264.170,220.647 264.800,220.757 264.800 C 220.867 264.800,220.346 264.170,219.600 263.400 C 218.854 262.630,218.153 262.000,218.043 262.000 C 217.933 262.000,218.454 262.630,219.200 263.400 M262.800 262.525 C 262.800 262.594,263.385 263.179,264.100 263.825 L 265.400 265.000 264.225 263.700 C 263.130 262.488,262.800 262.216,262.800 262.525 M176.352 265.287 C 176.537 266.398,176.593 266.455,176.719 265.654 C 176.801 265.133,176.703 264.543,176.501 264.341 C 176.279 264.119,176.221 264.493,176.352 265.287 M227.654 265.651 C 227.624 266.230,227.914 266.948,228.300 267.251 C 228.909 267.729,228.940 267.722,228.538 267.200 C 228.284 266.870,227.994 266.150,227.893 265.600 L 227.709 264.600 227.654 265.651 M192.084 275.387 C 197.080 280.435,201.220 284.483,201.284 284.383 C 201.348 284.282,197.260 280.152,192.200 275.204 L 183.000 266.209 192.084 275.387 M129.588 269.500 L 127.000 272.200 129.700 269.612 C 132.208 267.207,132.583 266.800,132.288 266.800 C 132.227 266.800,131.012 268.015,129.588 269.500 M141.200 268.200 C 141.946 268.970,142.647 269.600,142.757 269.600 C 142.867 269.600,142.346 268.970,141.600 268.200 C 140.854 267.430,140.153 266.800,140.043 266.800 C 139.933 266.800,140.454 267.430,141.200 268.200 M230.400 269.400 C 231.146 270.170,231.847 270.800,231.957 270.800 C 232.067 270.800,231.546 270.170,230.800 269.400 C 230.054 268.630,229.353 268.000,229.243 268.000 C 229.133 268.000,229.654 268.630,230.400 269.400 M258.697 277.503 C 247.797 288.411,248.200 287.255,253.500 292.408 L 257.400 296.200 253.700 292.392 C 248.650 287.195,248.235 288.336,259.120 277.488 C 264.136 272.490,268.139 268.400,268.017 268.400 C 267.894 268.400,263.700 272.496,258.697 277.503 M134.662 269.100 C 134.560 269.265,135.162 269.400,136.000 269.400 C 136.838 269.400,137.440 269.265,137.338 269.100 C 137.236 268.935,136.634 268.800,136.000 268.800 C 135.366 268.800,134.764 268.935,134.662 269.100 M268.844 268.900 C 268.942 268.955,270.367 270.260,272.011 271.800 L 275.000 274.600 272.211 271.700 C 270.677 270.105,269.252 268.800,269.044 268.800 C 268.836 268.800,268.747 268.845,268.844 268.900 M144.400 271.400 C 145.146 272.170,145.847 272.800,145.957 272.800 C 146.067 272.800,145.546 272.170,144.800 271.400 C 144.054 270.630,143.353 270.000,143.243 270.000 C 143.133 270.000,143.654 270.630,144.400 271.400 M227.800 272.000 C 228.883 273.100,229.860 274.000,229.970 274.000 C 230.080 274.000,229.283 273.100,228.200 272.000 C 227.117 270.900,226.140 270.000,226.030 270.000 C 225.920 270.000,226.717 270.900,227.800 272.000 M234.400 273.400 C 235.595 274.610,236.663 275.600,236.773 275.600 C 236.883 275.600,235.995 274.610,234.800 273.400 C 233.605 272.190,232.537 271.200,232.427 271.200 C 232.317 271.200,233.205 272.190,234.400 273.400 M148.000 274.925 C 148.000 274.994,148.585 275.579,149.300 276.225 L 150.600 277.400 149.425 276.100 C 148.330 274.888,148.000 274.616,148.000 274.925 M230.800 274.925 C 230.800 274.994,231.385 275.579,232.100 276.225 L 233.400 277.400 232.225 276.100 C 231.130 274.888,230.800 274.616,230.800 274.925 M279.000 278.800 C 281.192 281.000,283.075 282.800,283.185 282.800 C 283.295 282.800,281.592 281.000,279.400 278.800 C 277.208 276.600,275.325 274.800,275.215 274.800 C 275.105 274.800,276.808 276.600,279.000 278.800 M239.000 278.000 C 240.083 279.100,241.060 280.000,241.170 280.000 C 241.280 280.000,240.483 279.100,239.400 278.000 C 238.317 276.900,237.340 276.000,237.230 276.000 C 237.120 276.000,237.917 276.900,239.000 278.000 M119.188 279.900 L 116.600 282.600 119.300 280.012 C 121.808 277.607,122.183 277.200,121.888 277.200 C 121.827 277.200,120.612 278.415,119.188 279.900 M153.600 280.600 C 154.346 281.370,155.047 282.000,155.157 282.000 C 155.267 282.000,154.746 281.370,154.000 280.600 C 153.254 279.830,152.553 279.200,152.443 279.200 C 152.333 279.200,152.854 279.830,153.600 280.600 M236.400 280.600 C 237.146 281.370,237.847 282.000,237.957 282.000 C 238.067 282.000,237.546 281.370,236.800 280.600 C 236.054 279.830,235.353 279.200,235.243 279.200 C 235.133 279.200,235.654 279.830,236.400 280.600 M242.800 281.800 C 243.546 282.570,244.247 283.200,244.357 283.200 C 244.467 283.200,243.946 282.570,243.200 281.800 C 242.454 281.030,241.753 280.400,241.643 280.400 C 241.533 280.400,242.054 281.030,242.800 281.800 M240.269 284.400 C 241.407 285.610,242.417 287.050,242.514 287.600 L 242.691 288.600 242.746 287.586 C 242.786 286.835,242.204 286.006,240.500 284.386 L 238.200 282.200 240.269 284.400 M115.619 283.377 C 115.356 283.694,114.569 284.025,113.870 284.113 L 112.600 284.272 113.838 284.336 C 114.630 284.377,115.337 284.111,115.800 283.600 C 116.198 283.160,116.428 282.800,116.311 282.800 C 116.194 282.800,115.883 283.060,115.619 283.377 M296.175 284.100 L 295.000 285.400 296.300 284.225 C 297.015 283.579,297.600 282.994,297.600 282.925 C 297.600 282.616,297.270 282.888,296.175 284.100 M285.183 284.900 C 286.841 286.666,287.200 286.984,287.200 286.683 C 287.200 286.619,286.345 285.764,285.300 284.783 L 283.400 283.000 285.183 284.900 M117.356 286.571 C 117.235 286.885,117.204 287.560,117.286 288.071 C 117.395 288.754,117.488 288.604,117.637 287.500 C 117.847 285.947,117.736 285.581,117.356 286.571 M293.867 286.267 C 293.503 286.631,293.528 288.709,293.900 288.938 C 294.065 289.040,294.200 288.421,294.200 287.562 C 294.200 286.703,294.185 286.000,294.167 286.000 C 294.148 286.000,294.013 286.120,293.867 286.267 M161.246 287.438 C 161.221 287.899,161.605 288.619,162.100 289.038 C 162.993 289.794,162.995 289.793,162.341 289.000 C 161.979 288.560,161.595 287.840,161.488 287.400 C 161.300 286.631,161.291 286.632,161.246 287.438 M213.800 297.200 C 218.636 302.040,222.683 306.000,222.793 306.000 C 222.903 306.000,219.036 302.040,214.200 297.200 C 209.364 292.360,205.317 288.400,205.207 288.400 C 205.097 288.400,208.964 292.360,213.800 297.200 M107.978 291.100 L 106.600 292.600 108.100 291.222 C 109.496 289.938,109.784 289.600,109.478 289.600 C 109.412 289.600,108.737 290.275,107.978 291.100 M288.770 291.500 L 287.800 292.600 289.000 291.600 C 289.660 291.050,290.275 290.555,290.367 290.500 C 290.458 290.445,290.355 290.400,290.136 290.400 C 289.918 290.400,289.303 290.895,288.770 291.500 M236.397 299.900 L 227.400 309.000 236.500 300.003 C 244.956 291.644,245.780 290.800,245.497 290.800 C 245.440 290.800,241.345 294.895,236.397 299.900 M290.846 290.900 C 290.945 290.955,293.090 292.980,295.613 295.400 L 300.200 299.800 295.807 295.300 C 293.391 292.825,291.246 290.800,291.040 290.800 C 290.835 290.800,290.748 290.845,290.846 290.900 M166.000 293.000 C 166.746 293.770,167.447 294.400,167.557 294.400 C 167.667 294.400,167.146 293.770,166.400 293.000 C 165.654 292.230,164.953 291.600,164.843 291.600 C 164.733 291.600,165.254 292.230,166.000 293.000 M248.800 293.000 C 249.546 293.770,250.247 294.400,250.357 294.400 C 250.467 294.400,249.946 293.770,249.200 293.000 C 248.454 292.230,247.753 291.600,247.643 291.600 C 247.533 291.600,248.054 292.230,248.800 293.000 M102.187 296.900 L 99.800 299.400 102.300 297.013 C 104.622 294.795,104.983 294.400,104.687 294.400 C 104.626 294.400,103.501 295.525,102.187 296.900 M169.200 296.200 C 169.946 296.970,170.647 297.600,170.757 297.600 C 170.867 297.600,170.346 296.970,169.600 296.200 C 168.854 295.430,168.153 294.800,168.043 294.800 C 167.933 294.800,168.454 295.430,169.200 296.200 M252.800 297.000 C 253.995 298.210,255.063 299.200,255.173 299.200 C 255.283 299.200,254.395 298.210,253.200 297.000 C 252.005 295.790,250.937 294.800,250.827 294.800 C 250.717 294.800,251.605 295.790,252.800 297.000 M283.775 296.500 L 282.600 297.800 283.900 296.625 C 284.615 295.979,285.200 295.394,285.200 295.325 C 285.200 295.016,284.870 295.288,283.775 296.500 M259.400 298.400 C 260.483 299.500,261.460 300.400,261.570 300.400 C 261.680 300.400,260.883 299.500,259.800 298.400 C 258.717 297.300,257.740 296.400,257.630 296.400 C 257.520 296.400,258.317 297.300,259.400 298.400 M174.000 301.000 C 174.746 301.770,175.447 302.400,175.557 302.400 C 175.667 302.400,175.146 301.770,174.400 301.000 C 173.654 300.230,172.953 299.600,172.843 299.600 C 172.733 299.600,173.254 300.230,174.000 301.000 M256.800 301.000 C 257.546 301.770,258.247 302.400,258.357 302.400 C 258.467 302.400,257.946 301.770,257.200 301.000 C 256.454 300.230,255.753 299.600,255.643 299.600 C 255.533 299.600,256.054 300.230,256.800 301.000 M96.587 302.500 L 94.200 305.000 96.700 302.613 C 99.022 300.395,99.383 300.000,99.087 300.000 C 99.026 300.000,97.901 301.125,96.587 302.500 M304.393 304.100 C 308.287 308.094,308.800 308.582,308.800 308.293 C 308.800 308.234,306.865 306.299,304.500 303.993 L 300.200 299.800 304.393 304.100 M264.000 303.000 C 265.195 304.210,266.263 305.200,266.373 305.200 C 266.483 305.200,265.595 304.210,264.400 303.000 C 263.205 301.790,262.137 300.800,262.027 300.800 C 261.917 300.800,262.805 301.790,264.000 303.000 M176.000 302.925 C 176.000 302.994,176.585 303.579,177.300 304.225 L 178.600 305.400 177.425 304.100 C 176.330 302.888,176.000 302.616,176.000 302.925 M260.600 304.800 C 261.683 305.900,262.660 306.800,262.770 306.800 C 262.880 306.800,262.083 305.900,261.000 304.800 C 259.917 303.700,258.940 302.800,258.830 302.800 C 258.720 302.800,259.517 303.700,260.600 304.800 M264.366 308.840 C 264.802 309.557,265.050 310.319,264.917 310.534 C 264.784 310.749,264.882 310.796,265.137 310.639 C 265.630 310.335,264.809 308.300,263.989 307.793 C 263.760 307.652,263.930 308.123,264.366 308.840 M235.600 319.000 C 240.546 323.950,244.683 328.000,244.793 328.000 C 244.903 328.000,240.946 323.950,236.000 319.000 C 231.054 314.050,226.917 310.000,226.807 310.000 C 226.697 310.000,230.654 314.050,235.600 319.000 M272.400 311.400 C 273.146 312.170,273.847 312.800,273.957 312.800 C 274.067 312.800,273.546 312.170,272.800 311.400 C 272.054 310.630,271.353 310.000,271.243 310.000 C 271.133 310.000,271.654 310.630,272.400 311.400 M185.200 312.525 C 185.200 312.594,185.785 313.179,186.500 313.825 L 187.800 315.000 186.625 313.700 C 185.530 312.488,185.200 312.216,185.200 312.525 M214.397 321.900 L 205.000 331.400 214.461 322.042 C 221.416 315.163,224.097 312.752,224.582 312.938 C 224.968 313.086,225.140 313.027,224.997 312.795 C 224.445 311.902,223.393 312.805,214.397 321.900 M98.400 318.600 C 101.584 321.790,104.280 324.400,104.390 324.400 C 104.500 324.400,101.984 321.790,98.800 318.600 C 95.616 315.410,92.920 312.800,92.810 312.800 C 92.700 312.800,95.216 315.410,98.400 318.600 M134.662 313.100 C 134.560 313.265,135.162 313.400,136.000 313.400 C 136.838 313.400,137.440 313.265,137.338 313.100 C 137.236 312.935,136.634 312.800,136.000 312.800 C 135.366 312.800,134.764 312.935,134.662 313.100 M276.600 315.600 C 277.683 316.700,278.660 317.600,278.770 317.600 C 278.880 317.600,278.083 316.700,277.000 315.600 C 275.917 314.500,274.940 313.600,274.830 313.600 C 274.720 313.600,275.517 314.500,276.600 315.600 M303.375 316.100 L 302.200 317.400 303.500 316.225 C 304.215 315.579,304.800 314.994,304.800 314.925 C 304.800 314.616,304.470 314.888,303.375 316.100 M190.800 318.200 C 191.546 318.970,192.247 319.600,192.357 319.600 C 192.467 319.600,191.946 318.970,191.200 318.200 C 190.454 317.430,189.753 316.800,189.643 316.800 C 189.533 316.800,190.054 317.430,190.800 318.200 M274.000 318.200 C 274.746 318.970,275.447 319.600,275.557 319.600 C 275.667 319.600,275.146 318.970,274.400 318.200 C 273.654 317.430,272.953 316.800,272.843 316.800 C 272.733 316.800,273.254 317.430,274.000 318.200 M304.400 319.800 C 302.761 321.450,301.510 322.800,301.620 322.800 C 301.730 322.800,303.161 321.450,304.800 319.800 C 306.439 318.150,307.690 316.800,307.580 316.800 C 307.470 316.800,306.039 318.150,304.400 319.800 M280.400 319.400 C 281.146 320.170,281.847 320.800,281.957 320.800 C 282.067 320.800,281.546 320.170,280.800 319.400 C 280.054 318.630,279.353 318.000,279.243 318.000 C 279.133 318.000,279.654 318.630,280.400 319.400 M277.800 322.000 C 278.883 323.100,279.860 324.000,279.970 324.000 C 280.080 324.000,279.283 323.100,278.200 322.000 C 277.117 320.900,276.140 320.000,276.030 320.000 C 275.920 320.000,276.717 320.900,277.800 322.000 M258.575 321.700 L 257.400 323.000 258.700 321.825 C 259.415 321.179,260.000 320.594,260.000 320.525 C 260.000 320.216,259.670 320.488,258.575 321.700 M284.400 323.400 C 285.595 324.610,286.663 325.600,286.773 325.600 C 286.883 325.600,285.995 324.610,284.800 323.400 C 283.605 322.190,282.537 321.200,282.427 321.200 C 282.317 321.200,283.205 322.190,284.400 323.400 M280.800 324.925 C 280.800 324.994,281.385 325.579,282.100 326.225 L 283.400 327.400 282.225 326.100 C 281.130 324.888,280.800 324.616,280.800 324.925 M242.581 331.525 C 242.751 331.826,242.569 332.424,242.154 332.925 C 241.446 333.781,241.451 333.780,242.399 332.904 C 243.208 332.158,243.279 331.925,242.826 331.504 C 242.387 331.097,242.340 331.101,242.581 331.525 M207.400 334.800 C 208.483 335.900,209.460 336.800,209.570 336.800 C 209.680 336.800,208.883 335.900,207.800 334.800 C 206.717 333.700,205.740 332.800,205.630 332.800 C 205.520 332.800,206.317 333.700,207.400 334.800 M255.000 338.400 C 257.854 341.260,260.278 343.600,260.388 343.600 C 260.498 343.600,258.254 341.260,255.400 338.400 C 252.546 335.540,250.122 333.200,250.012 333.200 C 249.902 333.200,252.146 335.540,255.000 338.400 M195.595 340.700 L 189.800 346.600 195.700 340.805 C 198.945 337.618,201.600 334.963,201.600 334.905 C 201.600 334.619,200.978 335.219,195.595 340.700 M303.800 342.800 C 305.550 344.560,307.071 346.000,307.181 346.000 C 307.291 346.000,305.950 344.560,304.200 342.800 C 302.450 341.040,300.929 339.600,300.819 339.600 C 300.709 339.600,302.050 341.040,303.800 342.800 M298.800 343.000 C 299.546 343.770,300.247 344.400,300.357 344.400 C 300.467 344.400,299.946 343.770,299.200 343.000 C 298.454 342.230,297.753 341.600,297.643 341.600 C 297.533 341.600,298.054 342.230,298.800 343.000 M302.800 347.000 C 303.995 348.210,305.063 349.200,305.173 349.200 C 305.283 349.200,304.395 348.210,303.200 347.000 C 302.005 345.790,300.937 344.800,300.827 344.800 C 300.717 344.800,301.605 345.790,302.800 347.000 M219.200 346.600 C 219.946 347.370,220.647 348.000,220.757 348.000 C 220.867 348.000,220.346 347.370,219.600 346.600 C 218.854 345.830,218.153 345.200,218.043 345.200 C 217.933 345.200,218.454 345.830,219.200 346.600 M233.775 346.500 L 232.600 347.800 233.900 346.625 C 234.615 345.979,235.200 345.394,235.200 345.325 C 235.200 345.016,234.870 345.288,233.775 346.500 M309.400 348.400 C 310.483 349.500,311.460 350.400,311.570 350.400 C 311.680 350.400,310.883 349.500,309.800 348.400 C 308.717 347.300,307.740 346.400,307.630 346.400 C 307.520 346.400,308.317 347.300,309.400 348.400 M85.400 350.000 C 86.706 351.320,87.865 352.400,87.975 352.400 C 88.085 352.400,87.106 351.320,85.800 350.000 C 84.494 348.680,83.335 347.600,83.225 347.600 C 83.115 347.600,84.094 348.680,85.400 350.000 M306.800 351.000 C 307.546 351.770,308.247 352.400,308.357 352.400 C 308.467 352.400,307.946 351.770,307.200 351.000 C 306.454 350.230,305.753 349.600,305.643 349.600 C 305.533 349.600,306.054 350.230,306.800 351.000 M278.600 362.000 C 282.335 365.740,285.481 368.800,285.591 368.800 C 285.701 368.800,282.735 365.740,279.000 362.000 C 275.265 358.260,272.119 355.200,272.009 355.200 C 271.899 355.200,274.865 358.260,278.600 362.000 M92.200 357.261 C 92.640 357.501,94.624 359.250,96.610 361.149 L 100.220 364.600 96.372 360.700 C 94.255 358.555,92.271 356.805,91.962 356.812 C 91.616 356.820,91.708 356.993,92.200 357.261 M314.800 359.000 C 315.546 359.770,316.247 360.400,316.357 360.400 C 316.467 360.400,315.946 359.770,315.200 359.000 C 314.454 358.230,313.753 357.600,313.643 357.600 C 313.533 357.600,314.054 358.230,314.800 359.000 M308.975 359.300 L 307.800 360.600 309.100 359.425 C 309.815 358.779,310.400 358.194,310.400 358.125 C 310.400 357.816,310.070 358.088,308.975 359.300 M144.600 364.800 C 146.350 366.560,147.871 368.000,147.981 368.000 C 148.091 368.000,146.750 366.560,145.000 364.800 C 143.250 363.040,141.729 361.600,141.619 361.600 C 141.509 361.600,142.850 363.040,144.600 364.800 M252.585 366.900 L 250.600 369.000 252.700 367.015 C 253.855 365.923,254.800 364.978,254.800 364.915 C 254.800 364.617,254.429 364.949,252.585 366.900 M165.393 370.900 L 161.000 375.400 165.500 371.007 C 167.975 368.591,170.000 366.566,170.000 366.507 C 170.000 366.218,169.474 366.720,165.393 370.900 M256.175 368.100 L 255.000 369.400 256.300 368.225 C 257.015 367.579,257.600 366.994,257.600 366.925 C 257.600 366.616,257.270 366.888,256.175 368.100 M279.200 367.325 C 279.200 367.394,279.785 367.979,280.500 368.625 L 281.800 369.800 280.625 368.500 C 279.530 367.288,279.200 367.016,279.200 367.325 M209.200 371.000 C 208.228 371.990,207.523 372.800,207.633 372.800 C 207.743 372.800,208.628 371.990,209.600 371.000 C 210.572 370.010,211.277 369.200,211.167 369.200 C 211.057 369.200,210.172 370.010,209.200 371.000 M252.187 372.100 L 249.800 374.600 252.300 372.213 C 253.675 370.899,254.800 369.774,254.800 369.713 C 254.800 369.417,254.405 369.778,252.187 372.100 M204.800 375.725 C 204.800 375.794,205.385 376.379,206.100 377.025 L 207.400 378.200 206.225 376.900 C 205.130 375.688,204.800 375.416,204.800 375.725 M195.186 379.900 L 193.000 382.200 195.300 380.014 C 197.437 377.982,197.783 377.600,197.486 377.600 C 197.424 377.600,196.389 378.635,195.186 379.900 M154.786 381.500 L 152.600 383.800 154.800 381.731 C 156.010 380.593,157.450 379.583,158.000 379.486 L 159.000 379.309 157.986 379.254 C 157.235 379.214,156.406 379.796,154.786 381.500 M163.000 384.000 C 164.083 385.100,165.060 386.000,165.170 386.000 C 165.280 386.000,164.483 385.100,163.400 384.000 C 162.317 382.900,161.340 382.000,161.230 382.000 C 161.120 382.000,161.917 382.900,163.000 384.000 M208.400 385.000 C 209.146 385.770,209.847 386.400,209.957 386.400 C 210.067 386.400,209.546 385.770,208.800 385.000 C 208.054 384.230,207.353 383.600,207.243 383.600 C 207.133 383.600,207.654 384.230,208.400 385.000 M149.787 386.500 L 147.400 389.000 149.900 386.613 C 152.222 384.395,152.583 384.000,152.287 384.000 C 152.226 384.000,151.101 385.125,149.787 386.500 M252.800 385.325 C 252.800 385.394,253.385 385.979,254.100 386.625 L 255.400 387.800 254.225 386.500 C 253.130 385.288,252.800 385.016,252.800 385.325 M188.175 386.900 L 187.000 388.200 188.300 387.025 C 189.512 385.930,189.784 385.600,189.475 385.600 C 189.406 385.600,188.821 386.185,188.175 386.900 M234.386 389.900 L 232.200 392.200 234.500 390.014 C 236.637 387.982,236.983 387.600,236.686 387.600 C 236.624 387.600,235.589 388.635,234.386 389.900 " stroke="none" fill="#040404" fill-rule="evenodd"></path><path id="path2" d="" stroke="none" fill="#141414" fill-rule="evenodd"></path><path id="path3" d="" stroke="none" fill="#081014" fill-rule="evenodd"></path><path id="path4" d="" stroke="none" fill="#080410" fill-rule="evenodd"></path></g></svg>