<svg id="svg" version="1.1" xmlns="http://www.w3.org/2000/svg" xmlns:xlink="http://www.w3.org/1999/xlink" width="400" height="377.4891774891775" viewBox="0, 0, 400,377.4891774891775"><g id="svgg"><path id="path0" d="M374.781 94.429 C 374.781 95.156,374.858 95.453,374.953 95.090 C 375.048 94.726,375.048 94.131,374.953 93.768 C 374.858 93.404,374.781 93.702,374.781 94.429 M261.626 146.081 C 261.530 146.237,272.806 146.364,286.686 146.364 C 300.565 146.364,311.842 146.237,311.745 146.081 C 311.649 145.925,300.372 145.798,286.686 145.798 C 272.999 145.798,261.722 145.925,261.626 146.081 M398.962 295.940 C 398.966 296.771,399.044 297.066,399.134 296.596 C 399.224 296.126,399.221 295.446,399.126 295.085 C 399.032 294.724,398.958 295.109,398.962 295.940 M91.169 306.704 C 91.169 308.886,91.231 309.778,91.308 308.687 C 91.384 307.597,91.384 305.812,91.308 304.721 C 91.231 303.631,91.169 304.523,91.169 306.704 " stroke="none" fill="#f9f9f9" fill-rule="evenodd"></path><path id="path1" d="M397.459 355.052 C 397.459 355.987,397.533 356.369,397.623 355.902 C 397.713 355.434,397.713 354.669,397.623 354.202 C 397.533 353.735,397.459 354.117,397.459 355.052 M2.006 359.396 C 2.008 360.642,2.078 361.106,2.162 360.428 C 2.246 359.749,2.245 358.729,2.158 358.161 C 2.072 357.594,2.003 358.149,2.006 359.396 " stroke="none" fill="#040404" fill-rule="evenodd"></path><path id="path2" d="" stroke="none" fill="#7c7c7c" fill-rule="evenodd"></path><path id="path3" d="" stroke="none" fill="#747474" fill-rule="evenodd"></path><path id="path4" d="" stroke="none" fill="#8c8c8c" fill-rule="evenodd"></path></g></svg>